<?xml version="1.0" encoding="UTF-8" standalone="no"?>
<!-- Created with Inkscape (http://www.inkscape.org/) -->

<svg
   width="115.2"
   height="115.2"
   viewBox="0 0 30.479997 30.48"
   version="1.1"
   id="svg5"
   xml:space="preserve"
   inkscape:version="1.2.2 (732a01da63, 2022-12-09)"
   sodipodi:docname="admin_icon.svg"
   xmlns:inkscape="http://www.inkscape.org/namespaces/inkscape"
   xmlns:sodipodi="http://sodipodi.sourceforge.net/DTD/sodipodi-0.dtd"
   xmlns="http://www.w3.org/2000/svg"
   xmlns:svg="http://www.w3.org/2000/svg"><sodipodi:namedview
     id="namedview7"
     pagecolor="#ffffff"
     bordercolor="#666666"
     borderopacity="1.0"
     inkscape:showpageshadow="2"
     inkscape:pageopacity="0.0"
     inkscape:pagecheckerboard="0"
     inkscape:deskcolor="#d1d1d1"
     inkscape:document-units="mm"
     showgrid="false"
     inkscape:zoom="4.2179991"
     inkscape:cx="107.39689"
     inkscape:cy="51.209115"
     inkscape:window-width="1920"
     inkscape:window-height="1017"
     inkscape:window-x="-8"
     inkscape:window-y="-8"
     inkscape:window-maximized="1"
     inkscape:current-layer="layer1" /><defs
     id="defs2" /><g
     inkscape:label="Warstwa 1"
     inkscape:groupmode="layer"
     id="layer1"><path
       style="fill:#000000;stroke-width:0.0846667"
       d="m 18.411032,23.813789 c -0.325966,-0.201429 -0.847433,-0.600318 -1.158815,-0.88642 l -0.566149,-0.520187 -4.090518,0.0046 c -2.249785,0.0025 -4.2363248,0.0035 -4.4145308,0.0023 -0.455675,-0.0033 -0.818988,-0.369831 -0.818988,-0.826348 0,-0.561754 0.336218,-1.720432 0.755893,-2.604966 0.8434803,-1.777772 2.1936818,-3.144962 3.8799998,-3.928819 l 0.437762,-0.203487 0.509813,0.22879 c 0.525192,0.235693 1.468508,0.470455 1.90078,0.473047 0.134886,8.46e-4 1.15479,-0.231098 2.266454,-0.515348 l 2.021206,-0.516817 1.945089,0.516817 c 1.069799,0.28425 1.96442,0.516817 1.988047,0.516817 0.102003,0 0.03728,3.231972 -0.07658,3.823719 -0.295722,1.536991 -1.017418,2.746137 -2.22895,3.734433 -0.591973,0.482897 -1.524662,1.080904 -1.67318,1.072784 -0.04657,-0.0025 -0.351367,-0.169435 -0.677334,-0.370864 z m 2.037617,-1.50968 c 0.754309,-0.702819 1.161412,-1.302494 1.48366,-2.185476 0.135515,-0.371318 0.24639,-0.693078 0.24639,-0.71502 0,-0.02194 -0.685098,-0.0399 -1.52244,-0.0399 H 19.13382 l -0.02273,-1.932544 -0.02273,-1.932545 -1.566334,0.438783 -1.566333,0.438785 0.002,1.260927 c 0.0011,0.69351 0.03042,1.365703 0.06511,1.493761 l 0.06308,0.232833 h 1.522388 1.522387 v 1.952751 1.952751 l 0.351338,-0.195918 c 0.193235,-0.107754 0.628211,-0.453891 0.966612,-0.769192 z m -6.473758,-8.069712 c -0.672406,-0.18082 -1.257109,-0.525989 -1.784663,-1.053542 -1.532196,-1.532196 -1.591469,-3.9415203 -0.136772,-5.5594935 2.253241,-2.5061466 6.42682,-1.2638243 6.990992,2.0809629 0.336101,1.9926296 -0.995697,4.0165586 -2.992939,4.5483616 -0.556457,0.148168 -1.492363,0.140826 -2.076618,-0.01629 z"
       id="path302" /></g></svg>
