<?xml version="1.0" encoding="UTF-8" standalone="no"?>
<!-- Created with Inkscape (http://www.inkscape.org/) -->

<svg
   width="115.2"
   height="115.2"
   viewBox="0 0 30.479997 30.48"
   version="1.1"
   id="svg5"
   xml:space="preserve"
   inkscape:version="1.2.2 (732a01da63, 2022-12-09)"
   sodipodi:docname="admin_icon2.svg"
   xmlns:inkscape="http://www.inkscape.org/namespaces/inkscape"
   xmlns:sodipodi="http://sodipodi.sourceforge.net/DTD/sodipodi-0.dtd"
   xmlns="http://www.w3.org/2000/svg"
   xmlns:svg="http://www.w3.org/2000/svg"><sodipodi:namedview
     id="namedview7"
     pagecolor="#ffffff"
     bordercolor="#666666"
     borderopacity="1.0"
     inkscape:showpageshadow="2"
     inkscape:pageopacity="0.0"
     inkscape:pagecheckerboard="0"
     inkscape:deskcolor="#d1d1d1"
     inkscape:document-units="mm"
     showgrid="false"
     inkscape:zoom="4.2179991"
     inkscape:cx="81.199638"
     inkscape:cy="51.446194"
     inkscape:window-width="1920"
     inkscape:window-height="1017"
     inkscape:window-x="-8"
     inkscape:window-y="-8"
     inkscape:window-maximized="1"
     inkscape:current-layer="layer1" /><defs
     id="defs2" /><g
     inkscape:label="Warstwa 1"
     inkscape:groupmode="layer"
     id="layer1"><path
       style="fill:#000000;stroke-width:0.125221"
       d="m 19.929989,27.920469 c -0.482099,-0.29791 -1.253342,-0.88786 -1.713871,-1.310999 l -0.837326,-0.769348 -6.049817,0.0068 c -3.3274002,0.0037 -6.2654635,0.0052 -6.5290276,0.0034 -0.6739367,-0.0049 -1.2112714,-0.546973 -1.2112714,-1.222154 0,-0.830824 0.4972616,-2.544488 1.1179548,-3.852698 1.2474952,-2.629294 3.244424,-4.651343 5.7384642,-5.810654 l 0.647443,-0.300953 0.754006,0.338376 c 0.776752,0.348586 2.171902,0.695794 2.811226,0.699628 0.199495,0.0013 1.707918,-0.34179 3.352053,-0.762191 l 2.989335,-0.764363 2.876758,0.764363 c 1.582217,0.420401 2.905349,0.764364 2.940293,0.764364 0.150861,0 0.05514,4.780029 -0.113261,5.655212 -0.437368,2.273182 -1.504746,4.061488 -3.296585,5.52316 -0.875519,0.714196 -2.254953,1.598638 -2.474609,1.586629 -0.06888,-0.0037 -0.519666,-0.250592 -1.001767,-0.548502 z m 3.013606,-2.23279 c 1.115612,-1.039457 1.717711,-1.926365 2.194311,-3.23228 0.200425,-0.549173 0.364408,-1.02505 0.364408,-1.057502 0,-0.03245 -1.01325,-0.05901 -2.251667,-0.05901 h -2.251665 l -0.03362,-2.858199 -0.03362,-2.858199 -2.316585,0.648952 -2.316584,0.648955 0.003,1.864889 c 0.0016,1.025689 0.04499,2.01985 0.0963,2.209246 l 0.0933,0.344356 h 2.25159 2.251588 v 2.888084 2.888084 l 0.519624,-0.28976 c 0.285792,-0.159366 0.929115,-0.671296 1.429605,-1.137621 z M 13.369,13.752718 C 12.374521,13.485289 11.509754,12.97479 10.729509,12.194548 8.4634138,9.9284581 8.3757498,6.3651101 10.527226,3.9721564 c 3.33251,-3.70654631 9.505173,-1.8691737 10.339576,3.0777067 0.497088,2.947064 -1.472622,5.9404189 -4.426514,6.7269459 -0.822992,0.219138 -2.207183,0.20828 -3.071288,-0.02409 z"
       id="path302" /></g></svg>
